<svg width="75" height="79" viewBox="0 0 75 79" fill="none" xmlns="http://www.w3.org/2000/svg">
<path d="M63.5679 28.8481C62.4773 29.1403 61.355 28.4923 61.0628 27.4017C59.0355 19.8358 54.1855 13.5149 47.4039 9.59746C46.4254 9.03248 46.0901 7.78123 46.6551 6.80264C47.2201 5.82406 48.4713 5.48879 49.4504 6.05365C57.1769 10.5166 62.7048 17.7236 65.0143 26.3429C65.3065 27.4335 64.6586 28.5559 63.5679 28.8481Z" fill="#0C0B0B"/>
<path d="M9.56395 43.319C8.47332 43.6112 7.35101 42.9633 7.05878 41.8726C4.74923 33.2533 5.93349 24.2478 10.3964 16.5213C10.9614 15.5427 12.2132 15.2073 13.1917 15.7723C14.1703 16.3373 14.5057 17.589 13.9407 18.5676C10.0232 25.3487 8.98304 33.248 11.0103 40.8138C11.3025 41.9045 10.6546 43.0268 9.56395 43.319Z" fill="#0C0B0B"/>
<path d="M45.9188 70.9888C40.4709 72.4485 34.8527 69.2048 33.3929 63.757C33.1007 62.6664 33.7487 61.5441 34.8393 61.2518C35.9299 60.9596 37.0522 61.6076 37.3445 62.6982C38.2205 65.9677 41.5905 67.9133 44.86 67.0373C48.1289 66.1614 50.0751 62.7912 49.199 59.5218C48.9068 58.4312 49.5548 57.3088 50.6454 57.0166C51.736 56.7244 52.8583 57.3723 53.1506 58.463C54.6103 63.9108 51.3666 69.5291 45.9188 70.9888Z" fill="#0C0B0B"/>
<path d="M65.5344 57.2621L22.0676 68.909C19.5251 69.5903 16.9031 68.0765 16.2219 65.5344C15.8604 64.1853 16.1057 62.7505 16.8956 61.5985C19.9951 57.1397 20.9606 51.6071 19.5637 46.3937L17.5956 39.0488C14.871 28.8805 20.9266 18.392 31.0953 15.6673C41.2635 12.9427 51.7521 18.9983 54.4766 29.1665L56.4447 36.5115C57.8416 41.7248 61.4441 46.0334 66.3267 48.3338C67.6178 48.9479 68.5476 50.0678 68.9091 51.4169C69.5902 53.959 68.0764 56.581 65.5344 57.2621ZM32.1541 19.6188C24.1637 21.7598 19.4062 30.0001 21.5471 37.9899L23.5152 45.3349C25.224 51.7122 24.0428 58.4834 20.2752 63.906C20.2043 64.0098 20.1029 64.2123 20.1735 64.4756C20.2694 64.8335 20.6504 65.0535 21.0088 64.9575L64.4756 53.3106C64.8335 53.2147 65.0535 52.8337 64.9576 52.4758C64.887 52.2124 64.6985 52.0876 64.5914 52.0372C58.6105 49.221 54.202 43.9476 52.4932 37.5703L50.5251 30.2253C48.3842 22.2354 40.144 17.4779 32.1541 19.6188Z" fill="#0C0B0B"/>
<path d="M32.1541 19.6191C31.0635 19.9114 29.9412 19.2634 29.649 18.1728L27.5314 10.2697C27.2391 9.17908 27.8871 8.05677 28.9777 7.76454C30.0683 7.47231 31.1907 8.12028 31.4829 9.2109L33.6005 17.114C33.8927 18.2046 33.2448 19.3269 32.1541 19.6191Z" fill="#0C0B0B"/>
<circle cx="40" cy="14" r="13" fill="#53E2AE"/>
</svg>
