<svg width="35" height="44" viewBox="0 0 35 44" fill="none" xmlns="http://www.w3.org/2000/svg">
<path d="M17.559 9.03059C15.8335 9.03059 14.1467 9.55431 12.7119 10.5355C11.2772 11.5168 10.1589 12.9114 9.49857 14.5431C8.83823 16.1749 8.66545 17.9703 9.00209 19.7026C9.33873 21.4348 10.1697 23.0259 11.3898 24.2748C12.61 25.5237 14.1645 26.3742 15.8569 26.7187C17.5493 27.0633 19.3036 26.8864 20.8978 26.2106C22.492 25.5347 23.8546 24.3901 24.8132 22.9216C25.7719 21.4531 26.2836 19.7266 26.2836 17.9604C26.2808 15.593 25.3607 13.3233 23.7252 11.6492C22.0896 9.97515 19.8721 9.03342 17.559 9.03059ZM18.9427 21.9021L15.8141 18.6998V12.6025H19.3039V17.2211L21.4101 19.3767L18.9427 21.9021ZM29.8973 5.34434C28.2818 3.66101 26.3564 2.32202 24.2324 1.40474C22.1084 0.487464 19.8278 0.0100746 17.5225 0.000157745C15.2171 -0.00975909 12.9327 0.447993 10.8013 1.34697C8.66978 2.24594 6.73346 3.56832 5.10419 5.23769C3.47493 6.90706 2.18501 8.89034 1.30896 11.0729C0.432914 13.2555 -0.0118924 15.5942 0.000241729 17.9537C0.0123759 20.3133 0.48121 22.647 1.37966 24.82C2.2781 26.9931 3.58835 28.9623 5.23469 30.614L17.5225 43.5L29.8973 30.6015C33.1649 27.2497 35 22.708 35 17.9729C35 13.2379 33.1649 8.69623 29.8973 5.34434ZM17.559 30.4622C15.1432 30.4622 12.7817 29.729 10.7731 28.3553C8.76442 26.9816 7.19887 25.0291 6.27439 22.7447C5.34991 20.4603 5.10802 17.9466 5.57932 15.5215C6.05061 13.0964 7.21392 10.8687 8.92214 9.12033C10.6304 7.37193 12.8068 6.18125 15.1761 5.69886C17.5455 5.21648 20.0014 5.46405 22.2333 6.41029C24.4652 7.35652 26.3728 8.9589 27.7149 11.0148C29.0571 13.0707 29.7734 15.4878 29.7734 17.9604C29.7697 21.275 28.4817 24.4527 26.1918 26.7964C23.902 29.1401 20.7974 30.4585 17.559 30.4622Z" fill="#BABFBE"/>
</svg>
