<svg width="66" height="69" viewBox="0 0 66 69" fill="none" xmlns="http://www.w3.org/2000/svg">
<path fill-rule="evenodd" clip-rule="evenodd" d="M8.25 40.252C8.25 25.9683 19.3325 14.3758 33 14.3758C46.6675 14.3758 57.75 25.9683 57.75 40.252C57.75 43.2795 56.8425 47.0949 55.1952 50.085C53.526 53.1154 51.5295 54.599 49.5522 54.6277C48.2212 54.5587 47.2422 53.9578 45.4162 52.8451C45.0202 52.6036 44.5858 52.3391 44.1018 52.0516C41.4893 50.499 38.1425 48.8774 33 48.8774C27.8575 48.8774 24.5107 50.4962 21.8982 52.0516C21.4142 52.3391 20.9797 52.6036 20.5837 52.8451C18.7577 53.9578 17.7787 54.5587 16.4478 54.6277C14.4677 54.599 12.474 53.1154 10.8047 50.085C9.1575 47.0949 8.25 43.2795 8.25 40.252ZM33 8.62549C16.2938 8.62549 2.75 22.7942 2.75 40.252C2.75 44.2715 3.905 49.0787 6.039 52.9544C8.13725 56.764 11.6187 60.378 16.5 60.378H16.61C19.4727 60.2573 21.824 58.7881 23.683 57.6236C24.0103 57.4224 24.321 57.224 24.618 57.0486C26.752 55.7807 29.1472 54.6277 33 54.6277C36.8527 54.6277 39.248 55.7778 41.382 57.0486C41.679 57.224 41.987 57.4224 42.317 57.6236C44.176 58.7852 46.5245 60.2573 49.39 60.3751L49.445 60.378H49.5C54.3812 60.378 57.8628 56.764 59.961 52.9544C62.095 49.0816 63.25 44.2715 63.25 40.252C63.25 22.7942 49.7062 8.62549 33 8.62549ZM46.6125 30.0855C46.8752 29.8203 47.0847 29.5031 47.2288 29.1523C47.3729 28.8015 47.4488 28.4242 47.4519 28.0425C47.4551 27.6607 47.3855 27.2821 47.2473 26.9288C47.109 26.5754 46.9048 26.2544 46.6466 25.9844C46.3884 25.7145 46.0813 25.501 45.7434 25.3564C45.4054 25.2119 45.0433 25.1391 44.6781 25.1424C44.313 25.1458 43.9521 25.2251 43.6166 25.3758C43.2811 25.5264 42.9777 25.7455 42.724 26.0201L34.4245 34.6973C33.255 34.3695 32.0147 34.4544 30.8961 34.9388C29.7775 35.4231 28.8429 36.2799 28.2375 37.3761C27.6321 38.4724 27.3896 39.7469 27.5476 41.0019C27.7056 42.257 28.2553 43.4224 29.1114 44.3175C29.9676 45.2126 31.0823 45.7874 32.2828 45.9526C33.4832 46.1178 34.7022 45.8642 35.7507 45.2312C36.7993 44.5982 37.6187 43.6212 38.082 42.4517C38.5453 41.2821 38.6265 39.9854 38.313 38.7627L46.6125 30.0855ZM13.75 43.1272C14.4793 43.1272 15.1788 42.8243 15.6945 42.2851C16.2103 41.7459 16.5 41.0146 16.5 40.252C16.5 39.4895 16.2103 38.7582 15.6945 38.219C15.1788 37.6798 14.4793 37.3769 13.75 37.3769C13.0207 37.3769 12.3212 37.6798 11.8055 38.219C11.2897 38.7582 11 39.4895 11 40.252C11 41.0146 11.2897 41.7459 11.8055 42.2851C12.3212 42.8243 13.0207 43.1272 13.75 43.1272ZM55 40.252C55 41.0146 54.7103 41.7459 54.1945 42.2851C53.6788 42.8243 52.9793 43.1272 52.25 43.1272C51.5207 43.1272 50.8212 42.8243 50.3055 42.2851C49.7897 41.7459 49.5 41.0146 49.5 40.252C49.5 39.4895 49.7897 38.7582 50.3055 38.219C50.8212 37.6798 51.5207 37.3769 52.25 37.3769C52.9793 37.3769 53.6788 37.6798 54.1945 38.219C54.7103 38.7582 55 39.4895 55 40.252ZM33 23.0012C33.7293 23.0012 34.4288 22.6983 34.9445 22.1591C35.4603 21.6199 35.75 20.8886 35.75 20.126C35.75 19.3635 35.4603 18.6322 34.9445 18.093C34.4288 17.5538 33.7293 17.2509 33 17.2509C32.2707 17.2509 31.5712 17.5538 31.0555 18.093C30.5397 18.6322 30.25 19.3635 30.25 20.126C30.25 20.8886 30.5397 21.6199 31.0555 22.1591C31.5712 22.6983 32.2707 23.0012 33 23.0012Z" fill="#374957"/>
</svg>
