<svg width="60" height="60" viewBox="0 0 60 60" fill="none" xmlns="http://www.w3.org/2000/svg">
<g clip-path="url(#clip0_116_3607)">
<path d="M51.7 2.91809L51.6475 2.90059L44.86 0.650593C42.5155 -0.127767 39.9934 -0.196473 37.61 0.453093L23.67 4.50059C21.9631 4.95293 20.1518 4.79373 18.55 4.05059L17.3 3.47059C15.4015 2.68102 13.3375 2.37198 11.291 2.57086C9.24447 2.76973 7.27861 3.47037 5.56763 4.6107C3.85665 5.75102 2.45339 7.2958 1.48221 9.10814C0.511027 10.9205 0.00191821 12.9444 0 15.0006L0 45.188C0.00525399 47.8914 0.88448 50.5205 2.50648 52.6832C4.12847 54.8458 6.40628 56.426 9 57.188L16.1725 59.438C17.3825 59.8142 18.6428 60.0039 19.91 60.0005C21.0395 60.0148 22.165 59.8624 23.25 59.548L37.75 55.548C39.0751 55.1886 40.4734 55.1999 41.7925 55.5805L47.65 57.2705C49.1205 57.6261 50.6526 57.6433 52.1308 57.3209C53.6089 56.9986 54.9947 56.345 56.1837 55.4094C57.3727 54.4739 58.3339 53.2808 58.9949 51.9199C59.656 50.5591 59.9996 49.066 60 47.553V14.6906C59.9962 12.1127 59.1971 9.59873 57.7116 7.49182C56.2262 5.38491 54.1268 3.78768 51.7 2.91809ZM10.44 52.398C8.87577 51.9457 7.50023 50.9987 6.51949 49.6988C5.53875 48.399 5.00563 46.8163 5 45.188V15.0006C4.98785 13.7623 5.28739 12.5408 5.87106 11.4486C6.45473 10.3564 7.30376 9.42862 8.34 8.75058C9.57301 7.93269 11.0204 7.49778 12.5 7.50058C13.4542 7.50085 14.3989 7.68945 15.28 8.05558C15.28 8.05558 17.1425 8.85308 17.4975 8.98058V54.6055L10.44 52.398ZM22.5 54.568V9.69808C23.3491 9.65302 24.1917 9.52321 25.015 9.31058L37.5 5.68309V50.5005L22.5 54.568ZM55 47.553C55.0005 48.3019 54.8329 49.0413 54.5093 49.7167C54.1858 50.392 53.7148 50.9861 53.1309 51.455C52.547 51.9239 51.8653 52.2557 51.136 52.4258C50.4068 52.596 49.6486 52.6002 48.9175 52.438L42.5 50.6305V5.18809L50.045 7.63558C51.4951 8.16097 52.7483 9.11978 53.6348 10.3819C54.5212 11.644 54.9978 13.1483 55 14.6906V47.553Z" fill="#374957"/>
</g>
<defs>
<clipPath id="clip0_116_3607">
<rect width="60" height="60" fill="white"/>
</clipPath>
</defs>
</svg>
