<svg width="42" height="40" viewBox="0 0 42 40" fill="none" xmlns="http://www.w3.org/2000/svg">
<g clip-path="url(#clip0_115_2165)">
<path d="M28.7619 11.5868C28.2152 11.898 27.6193 12.1131 26.9999 12.2228V23.8738C27.5269 23.7712 28.0336 23.583 28.4999 23.3168L34.5269 19.8378C35.286 19.3977 35.9164 18.7661 36.3551 18.0061C36.7938 17.2461 37.0254 16.3843 37.0269 15.5068V8.54681C37.0237 8.01262 36.9342 7.48245 36.7619 6.97681L28.7619 11.5868Z" fill="#585353"/>
<path d="M24.242 9.8569C24.7775 10.165 25.3846 10.3271 26.0024 10.3271C26.6203 10.3271 27.2274 10.165 27.7629 9.8569L35.763 5.2469C35.4086 4.83978 34.9905 4.49293 34.525 4.2199L28.5 0.736897C27.7394 0.299519 26.8773 0.0693359 26 0.0693359C25.1226 0.0693359 24.2605 0.299519 23.5 0.736897L17.4729 4.2169C17.024 4.47979 16.6191 4.81149 16.2729 5.1999L24.242 9.8569Z" fill="#585353"/>
<path d="M25 12.2233C24.3803 12.1139 23.7839 11.8988 23.237 11.5873L15.257 6.92334C15.0723 7.44502 14.9764 7.99395 14.973 8.54734V15.5073C14.9745 16.3848 15.2061 17.2466 15.6448 18.0066C16.0835 18.7666 16.7139 19.3982 17.473 19.8383L23.5 23.3173C23.9663 23.5836 24.473 23.7717 25 23.8743V12.2233Z" fill="#585353"/>
</g>
<g clip-path="url(#clip1_115_2165)">
<path d="M14.7619 20.5868C14.2152 20.898 13.6193 21.1131 12.9999 21.2228V32.8738C13.5269 32.7712 14.0336 32.583 14.4999 32.3168L20.5269 28.8378C21.286 28.3977 21.9164 27.7661 22.3551 27.0061C22.7938 26.2461 23.0254 25.3843 23.0269 24.5068V17.5468C23.0237 17.0126 22.9342 16.4825 22.7619 15.9768L14.7619 20.5868Z" fill="#2E2C2C"/>
<path d="M10.242 18.8569C10.7775 19.165 11.3846 19.3271 12.0024 19.3271C12.6203 19.3271 13.2274 19.165 13.7629 18.8569L21.763 14.2469C21.4086 13.8398 20.9905 13.4929 20.525 13.2199L14.5 9.7369C13.7394 9.29952 12.8773 9.06934 12 9.06934C11.1226 9.06934 10.2605 9.29952 9.49995 9.7369L3.47295 13.2169C3.024 13.4798 2.61908 13.8115 2.27295 14.1999L10.242 18.8569Z" fill="#2E2C2C"/>
<path d="M11 21.2233C10.3803 21.1139 9.78392 20.8988 9.23702 20.5873L1.25702 15.9233C1.07235 16.445 0.976355 16.9939 0.973022 17.5473V24.5073C0.974485 25.3848 1.20613 26.2466 1.64481 27.0066C2.0835 27.7666 2.71389 28.3982 3.47302 28.8383L9.50002 32.3173C9.9663 32.5836 10.473 32.7717 11 32.8743V21.2233Z" fill="#2E2C2C"/>
</g>
<g clip-path="url(#clip2_115_2165)">
<path d="M32.7619 27.5868C32.2152 27.898 31.6193 28.1131 30.9999 28.2228V39.8738C31.5269 39.7712 32.0336 39.583 32.4999 39.3168L38.5269 35.8378C39.286 35.3977 39.9164 34.7661 40.3551 34.0061C40.7938 33.2461 41.0254 32.3843 41.0269 31.5068V24.5468C41.0237 24.0126 40.9342 23.4825 40.7619 22.9768L32.7619 27.5868Z" fill="black"/>
<path d="M28.242 25.8569C28.7775 26.165 29.3846 26.3271 30.0024 26.3271C30.6203 26.3271 31.2274 26.165 31.7629 25.8569L39.763 21.2469C39.4086 20.8398 38.9905 20.4929 38.525 20.2199L32.5 16.7369C31.7394 16.2995 30.8773 16.0693 30 16.0693C29.1226 16.0693 28.2605 16.2995 27.5 16.7369L21.4729 20.2169C21.024 20.4798 20.6191 20.8115 20.2729 21.1999L28.242 25.8569Z" fill="black"/>
<path d="M29 28.2233C28.3803 28.1139 27.7839 27.8988 27.237 27.5873L19.257 22.9233C19.0723 23.445 18.9764 23.9939 18.973 24.5473V31.5073C18.9745 32.3848 19.2061 33.2466 19.6448 34.0066C20.0835 34.7666 20.7139 35.3982 21.473 35.8383L27.5 39.3173C27.9663 39.5836 28.473 39.7717 29 39.8743V28.2233Z" fill="black"/>
</g>
<defs>
<clipPath id="clip0_115_2165">
<rect width="24" height="24" fill="white" transform="translate(14)"/>
</clipPath>
<clipPath id="clip1_115_2165">
<rect width="24" height="24" fill="white" transform="translate(0 9)"/>
</clipPath>
<clipPath id="clip2_115_2165">
<rect width="24" height="24" fill="white" transform="translate(18 16)"/>
</clipPath>
</defs>
</svg>
