<svg width="53" height="52" viewBox="0 0 53 52" fill="none" xmlns="http://www.w3.org/2000/svg">
<path d="M49.6941 23.4435L49.6965 23.4459L49.6977 23.447C50.9711 24.7071 50.9701 26.7494 49.6949 28.0081C49.0699 28.6241 48.2435 28.9633 47.3532 28.9633H46.5669H45.0669V30.4633V45.9089C45.0669 48.1175 43.237 49.952 40.9469 49.952H32.623C32.6214 49.952 32.6199 49.952 32.6185 49.9519C32.6156 49.9517 32.6134 49.9514 32.6118 49.9511C32.6095 49.9506 32.6075 49.95 32.6058 49.9492C32.6021 49.9477 32.5986 49.9454 32.5959 49.9427C32.5956 49.9424 32.5953 49.942 32.595 49.9417V37.8353C32.595 35.593 30.7541 33.8061 28.5311 33.8061H23.6215C21.3986 33.8061 19.5576 35.593 19.5576 37.8353V49.9416C19.5574 49.9419 19.557 49.9422 19.5567 49.9426C19.5539 49.9454 19.5504 49.9477 19.5467 49.9493C19.5449 49.95 19.543 49.9506 19.5406 49.9511C19.5384 49.9515 19.5348 49.952 19.5296 49.952H11.2057C8.91563 49.952 7.08578 48.1175 7.08578 45.9089V30.4633V28.9633H5.58578H4.73779L4.73347 28.9631L4.69341 28.9593L4.65321 28.9576C3.81651 28.9221 3.04317 28.5855 2.45721 28.0072L2.45696 28.007C1.18326 26.7505 1.18079 24.7112 2.45088 23.451L2.46414 23.4378L2.47308 23.4288L23.7342 2.45552L23.7342 2.45551C24.3587 1.83945 25.1852 1.5 26.0763 1.5C26.9672 1.5 27.7936 1.83966 28.4178 2.45567L28.4181 2.45592L49.6941 23.4435L49.6941 23.4435Z" stroke="white" stroke-width="3"/>
</svg>
