<svg width="42" height="47" viewBox="0 0 42 47" fill="none" xmlns="http://www.w3.org/2000/svg">
<path d="M20.8675 0C13.9635 0 8.34668 5.54148 8.34668 12.3528C8.34668 19.1642 13.9635 24.7057 20.8675 24.7057C27.7715 24.7057 33.3883 19.1642 33.3883 12.3528C33.3883 5.54148 27.7715 0 20.8675 0ZM20.8675 21.9606C15.4977 21.9606 11.1291 17.6505 11.1291 12.3528C11.1291 7.05511 15.4977 2.74507 20.8675 2.74507C26.2372 2.74507 30.6059 7.05511 30.6059 12.3528C30.6059 17.6505 26.2372 21.9606 20.8675 21.9606Z" fill="white"/>
<path d="M36.4463 32.7751C33.0184 29.3412 28.4741 27.4501 23.6504 27.4501H18.0856C13.262 27.4501 8.71763 29.3412 5.28971 32.7751C1.87858 36.1921 0 40.7026 0 45.476C0 46.2341 0.622887 46.8486 1.3912 46.8486H40.3448C41.1131 46.8486 41.736 46.2341 41.736 45.476C41.736 40.7026 39.8574 36.1921 36.4463 32.7751ZM2.84361 44.1035C3.5406 36.3179 10.1104 30.1951 18.0856 30.1951H23.6504C31.6256 30.1951 38.1954 36.3179 38.8924 44.1035H2.84361Z" fill="white"/>
</svg>
