<svg width="40" height="42" viewBox="0 0 40 42" fill="none" xmlns="http://www.w3.org/2000/svg">
<path d="M19.9334 41.6731C20.7734 41.6545 21.5794 41.3509 22.2089 40.8159C22.8385 40.281 23.2509 39.5492 23.3734 38.75H16.3601C16.4861 39.5709 16.9179 40.3199 17.5752 40.8576C18.2325 41.3953 19.0705 41.6851 19.9334 41.6731Z" fill="#909090"/>
<path fill-rule="evenodd" clip-rule="evenodd" d="M35.9333 29.6474C36.8686 31.0383 37.9943 32.3017 39.28 33.4039C39.4222 33.524 39.5362 33.6719 39.6144 33.8377C39.6925 34.0035 39.7331 34.1834 39.7333 34.3654V36.109C39.7333 36.449 39.5929 36.7751 39.3428 37.0155C39.0928 37.256 38.7536 37.391 38.4 37.391H1.33333C0.979712 37.391 0.640573 37.256 0.390524 37.0155C0.140476 36.7751 0 36.449 0 36.109V34.3654C0.000239728 34.1834 0.0407913 34.0035 0.118957 33.8377C0.197122 33.6719 0.311109 33.524 0.453334 33.4039C1.72026 32.2984 2.82784 31.0351 3.74667 29.6474C4.7677 27.7276 5.37967 25.6311 5.54667 23.4808V17.1474C5.5383 13.8015 6.78916 10.5655 9.06829 8.03709C11.3474 5.50865 14.501 3.8584 17.9467 3.39103V1.71154C17.9467 1.25761 18.1342 0.822274 18.468 0.501298C18.8018 0.180322 19.2546 0 19.7267 0C20.1988 0 20.6515 0.180322 20.9853 0.501298C21.3191 0.822274 21.5067 1.25761 21.5067 1.71154V3.13174C22.2807 3.263 23.5262 3.66049 25.4334 4.45514C31.3918 6.93782 33.7342 12.5435 33.9296 14.9062C34.0599 15.6468 34.128 16.3963 34.1333 17.1474V23.4808C34.3003 25.6311 34.9123 27.7276 35.9333 29.6474ZM31.2539 14.7845C31.3955 15.5876 31.4669 16.4364 31.4667 17.1603V23.4936C31.6301 26.1167 32.3805 28.675 33.6667 30.9936C34.5872 32.3962 35.6795 33.6874 36.92 34.8397H2.77333C4.01388 33.6874 5.10613 32.3962 6.02667 30.9936C7.31282 28.675 8.06324 26.1167 8.22667 23.4936V17.1474C8.21965 15.6637 8.51708 14.1932 9.10192 12.8202C9.68677 11.4471 10.5475 10.1985 11.635 9.14572C12.7224 8.09299 14.0151 7.25683 15.439 6.68515C16.863 6.11346 18.3902 5.81746 19.9333 5.8141C22.0313 5.81572 24.0855 6.37003 25.8744 7.4126C26.0021 7.51007 26.1532 7.6202 26.3222 7.74334C27.6865 8.7374 30.2144 10.5794 30.9334 13.4551C30.9334 13.4551 30.9334 13.4551 30.9334 13.4552C30.9334 13.4551 30.9334 13.4551 30.9333 13.4551C30.9334 13.4552 30.9334 13.4553 30.9334 13.4554C31.0508 13.925 31.1575 14.369 31.2539 14.7845Z" fill="white"/>
</svg>
