<svg width="48" height="47" viewBox="0 0 48 47" fill="none" xmlns="http://www.w3.org/2000/svg">
<path d="M25.1937 46.7652H22.2182C19.8115 46.7652 17.8535 44.834 17.8535 42.4602V41.4672C16.8303 41.1448 15.8363 40.7378 14.8813 40.2503L14.1679 40.954C12.44 42.6604 9.67223 42.6103 7.99457 40.9534L5.8915 38.8791C4.21087 37.2232 4.16253 34.4941 5.89205 32.79L6.6049 32.0869C6.11068 31.1449 5.69814 30.1646 5.37117 29.1552H4.36459C1.95806 29.1552 0 27.2239 0 24.8501V21.9151C0 19.5413 1.95806 17.61 4.36468 17.61H5.37126C5.69824 16.6007 6.11078 15.6203 6.60499 14.6783L5.89159 13.9748C4.16309 12.2717 4.21078 9.5423 5.89214 7.8857L7.9954 5.81122C9.67696 4.15032 12.4441 4.10886 14.1686 5.81177L14.8813 6.5148C15.8363 6.02742 16.8304 5.62041 17.8536 5.2979V4.30505C17.8536 1.93126 19.8115 0 22.2183 0H25.1938C27.6004 0 29.5584 1.93126 29.5584 4.30505V5.29799C30.5816 5.62041 31.5756 6.02742 32.5307 6.51489L33.2441 5.81122C34.9719 4.10484 37.7397 4.15489 39.4173 5.81186L41.5204 7.88615C43.201 9.54203 43.2494 12.2711 41.5199 13.9752L40.807 14.6783C41.3012 15.6203 41.7138 16.6007 42.0407 17.61H43.0473C45.4539 17.61 47.412 19.5413 47.412 21.9151V24.8501C47.412 27.2239 45.4539 29.1552 43.0473 29.1552H42.0407C41.7138 30.1645 41.3012 31.1449 40.807 32.0869L41.5204 32.7906C43.2489 34.4937 43.2012 37.223 41.5199 38.8796L39.4166 40.9541C37.735 42.615 34.9679 42.6565 33.2434 40.9536L32.5307 40.2505C31.5756 40.7379 30.5816 41.1449 29.5584 41.4674V42.4604C29.5584 44.834 27.6005 46.7652 25.1937 46.7652ZM15.3457 37.3729C16.6724 38.1468 18.1003 38.7315 19.5897 39.1106C20.2031 39.2667 20.6316 39.8124 20.6316 40.4372V42.4602C20.6316 43.3231 21.3435 44.0251 22.2183 44.0251H25.1938C26.0686 44.0251 26.7805 43.3231 26.7805 42.4602V40.4372C26.7805 39.8124 27.209 39.2667 27.8224 39.1106C29.3118 38.7315 30.7397 38.1468 32.0664 37.3729C32.6123 37.0545 33.3073 37.1411 33.7558 37.5834L35.2085 39.0165C35.8349 39.635 36.8407 39.6207 37.4517 39.0171L39.5562 36.9413C40.1657 36.3409 40.1861 35.3486 39.5568 34.7287L38.1034 33.2951C37.655 32.8528 37.5672 32.1673 37.89 31.6289C38.6746 30.3204 39.2672 28.912 39.6516 27.4428C39.81 26.8378 40.3632 26.4151 40.9966 26.4151H43.0474C43.9222 26.4151 44.634 25.7131 44.634 24.8502V21.9152C44.634 21.0523 43.9222 20.3503 43.0474 20.3503H40.9966C40.3631 20.3503 39.81 19.9276 39.6516 19.3226C39.2672 17.8534 38.6745 16.445 37.89 15.1365C37.5672 14.5982 37.655 13.9126 38.1034 13.4703L39.5562 12.0373C40.1843 11.4186 40.1679 10.4266 39.5568 9.82463L37.4524 7.74896C36.8425 7.14649 35.8364 7.12887 35.2091 7.74841L33.7559 9.18197C33.3075 9.62432 32.6122 9.71091 32.0665 9.3925C30.7398 8.6186 29.3119 8.03394 27.8225 7.65479C27.2091 7.4987 26.7806 6.95304 26.7806 6.32819V4.30505C26.7806 3.44218 26.0687 2.74015 25.1939 2.74015H22.2184C21.3435 2.74015 20.6317 3.44218 20.6317 4.30505V6.32801C20.6317 6.95286 20.2032 7.49851 19.5898 7.65461C18.1004 8.03376 16.6724 8.61841 15.3457 9.39232C14.7998 9.71064 14.1048 9.62405 13.6564 9.18179L12.2037 7.74878C11.5773 7.13024 10.5714 7.14458 9.9605 7.74814L7.85595 9.8239C7.24644 10.4244 7.22607 11.4166 7.85539 12.0366L9.30877 13.4701C9.75715 13.9124 9.84494 14.598 9.52222 15.1363C8.73761 16.4448 8.14496 17.8533 7.76057 19.3224C7.60222 19.9275 7.04902 20.3501 6.41562 20.3501H4.36468C3.48987 20.3502 2.77805 21.0522 2.77805 21.9151V24.8501C2.77805 25.713 3.48987 26.4151 4.36468 26.4151H6.41553C7.04902 26.4151 7.60213 26.8378 7.76047 27.4427C8.14486 28.9119 8.73761 30.3203 9.52213 31.6288C9.84484 32.1672 9.75706 32.8528 9.30868 33.295L7.85585 34.728C7.22783 35.3468 7.24422 36.3387 7.8553 36.9407L9.95967 39.0164C10.5696 39.6188 11.5757 39.6365 12.2029 39.0169L13.6562 37.5834C13.9866 37.2575 14.674 36.9811 15.3457 37.3729Z" fill="white"/>
<path d="M23.7062 33.5589C18.018 33.5589 13.3904 28.9944 13.3904 23.3838C13.3904 17.7733 18.018 13.2087 23.7062 13.2087C29.3944 13.2087 34.022 17.7733 34.022 23.3838C34.022 28.9944 29.3944 33.5589 23.7062 33.5589ZM23.7062 15.9489C19.5498 15.9489 16.1684 19.2842 16.1684 23.3838C16.1684 27.4835 19.5499 30.8188 23.7062 30.8188C27.8625 30.8188 31.244 27.4835 31.244 23.3838C31.244 19.2842 27.8626 15.9489 23.7062 15.9489Z" fill="white"/>
</svg>
