<svg width="33"
    height="26"
    viewBox="0 0 33 26"
    fill="none"
    xmlns="http://www.w3.org/2000/svg">
    <path
        fill-rule="evenodd"
        clip-rule="evenodd"
        d="M28.7073 10.25C28.735 10.3282 28.75 10.4123 28.75 10.5C28.75 10.9142 28.4142 11.25 28 11.25L10 11.25C9.58579 11.25 9.25 10.9142 9.25 10.5C9.25 10.0858 9.58579 9.75 10 9.75L26.6893 9.75L22.4697 5.53033C22.1768 5.23744 22.1768 4.76256 22.4697 4.46967C22.7626 4.17678 23.2374 4.17678 23.5303 4.46967L28.5303 9.46967C28.7413 9.68068 28.8003 9.98614 28.7073 10.25ZM5 14.25C4.58579 14.25 4.25 14.5858 4.25 15C4.25 15.0877 4.26504 15.1718 4.29269 15.25C4.19967 15.5139 4.25866 15.8193 4.46967 16.0303L9.46967 21.0303C9.76256 21.3232 10.2374 21.3232 10.5303 21.0303C10.8232 20.7374 10.8232 20.2626 10.5303 19.9697L6.31066 15.75H23C23.4142 15.75 23.75 15.4142 23.75 15C23.75 14.5858 23.4142 14.25 23 14.25H5Z"
        fill="white" />
</svg>
